# xmcd
#
# Track frame offsets:
#	150
#	20048
#	40617
#	72474
#	93200
#	113548
#	133613
#	152809
#
# Disc length: 2502 seconds
#
# Revision: 1
# Processed by: cddbd v1.5.2PL0 Copyright (c) Steve Scherf et al.
# Submitted via: audiograbber 1.83.01
#
DISCID=6009c408
DTITLE=Dreaming Dead - Within One
DYEAR=2009
DGENRE=Death Metal
TTITLE0=Stairs into the vortex
TTITLE1=Within one
TTITLE2=Putrid is the sky
TTITLE3=Shadows in the dark
TTITLE4=Cursed
TTITLE5=War machine
TTITLE6=Perpetual pretext
TTITLE7=Manslaughter
EXTD=
EXTT0=
EXTT1=
EXTT2=
EXTT3=
EXTT4=
EXTT5=
EXTT6=
EXTT7=
PLAYORDER=
